<svg data-v-423bf9ae="" xmlns="http://www.w3.org/2000/svg" viewBox="0 0 352.5214745799683 163" class="iconAbove"><!----><!----><!----><g data-v-423bf9ae="" id="eeedf021-cda2-42f0-8456-177da1becaca" fill="#ffffff" transform="matrix(4.297994257596313,0,0,4.297994257596313,-1.7621725837161932,102.82808359636587)"><path d="M9.46 2.30L10.08 9.45L8.89 9.91L8.99 10.50L12.67 10.50L12.77 9.91L11.58 9.45L10.92 1.75L12.14 1.29L12.03 0.70L9.42 0.70L6.31 8.97L6.31 7.95L3.85 0.70L1.32 0.70L1.22 1.29L2.44 1.75L1.61 9.45L0.41 9.91L0.52 10.50L3.30 10.50L3.40 9.91L2.21 9.45L2.94 2.62L5.68 10.74L6.37 10.50ZM19.88 5.78C19.88 4.34 18.79 3.81 17.16 3.81C15.20 3.81 13.80 5.07 13.80 7.22C13.80 9.30 14.97 10.65 17.44 10.65C18.35 10.65 19.25 10.37 19.85 9.83L19.53 9.37C18.96 9.73 18.27 10.00 17.53 10.00C16.25 10.00 15.54 9.14 15.34 7.87C17.71 7.87 19.88 7.49 19.88 5.78ZM15.29 7.11C15.29 5.52 15.90 4.33 17.11 4.33C18.07 4.33 18.56 4.73 18.56 5.61C18.56 6.65 17.12 7.36 15.29 7.38ZM21.70 0.70L21.70 9.38C21.70 10.36 22.39 10.65 22.90 10.65C23.28 10.65 23.65 10.60 23.84 10.50L23.84 10.00C23.41 10.00 23.02 9.79 23.02 9.35L23.02 0.70C23.02 0.70 23.03 0.04 22.26 0.04C21.80 0.04 21.18 0.14 20.86 0.20L20.86 0.70ZM35.92 9.30C35.11 9.79 33.81 9.91 33.31 9.91C30.53 9.91 29.97 7.69 29.97 5.53C29.97 2.53 31.07 1.15 33.31 1.15C33.73 1.15 34.23 1.22 34.71 1.32L35.14 3.15C35.83 3.15 36.39 2.73 36.39 2.04C36.39 0.66 34.37 0.46 33.31 0.46C29.89 0.46 28.32 3.01 28.32 5.60C28.32 8.19 29.67 10.74 33.31 10.74C34.47 10.74 35.69 10.42 36.39 9.91ZM39.83 10.65C40.52 10.65 41.23 10.28 41.55 9.60C41.75 10.39 42.29 10.65 42.78 10.65C43.05 10.65 43.33 10.61 43.55 10.50L43.55 10.00C43.12 10.00 42.78 9.79 42.78 9.35L42.78 3.96L42.29 3.81L41.47 4.03C41.12 3.85 40.67 3.81 40.25 3.81C38.49 3.81 37.04 4.90 37.04 7.57C37.04 9.83 38.46 10.65 39.83 10.65ZM41.47 7.77C41.47 9.37 40.67 10.00 39.97 10.00C39.20 10.00 38.40 9.45 38.40 7.50C38.40 5.08 39.42 4.33 40.32 4.33C40.74 4.33 41.02 4.40 41.47 4.65ZM45.93 7.10C45.93 5.12 46.97 4.33 47.67 4.33C48.66 4.33 49.28 5.17 49.28 6.93C49.28 8.61 48.73 10.00 47.40 10.00C46.86 10.00 46.28 9.88 45.93 9.70ZM44.62 10.00C45.43 10.47 46.33 10.65 47.50 10.65C49.49 10.65 50.67 9.14 50.67 6.90C50.67 4.96 49.55 3.81 47.87 3.81C46.84 3.81 45.98 4.55 45.65 5.54L45.93 4.20L45.93 0.70C45.93 0.70 45.95 0.04 45.18 0.04C44.72 0.04 44.10 0.14 43.78 0.20L43.78 0.70L44.62 0.70ZM55.06 10.12C54.22 10.12 53.69 9.49 53.69 8.43L53.69 4.47C53.69 4.47 53.70 3.81 52.93 3.81C52.47 3.81 51.97 3.92 51.65 3.96L51.65 4.47L52.37 4.47L52.37 8.15C52.37 9.83 53.24 10.65 54.77 10.65C55.48 10.65 56.17 10.26 56.56 9.60C56.76 10.39 57.39 10.65 57.88 10.65C58.14 10.65 58.42 10.61 58.65 10.50L58.65 10.00C58.21 10.00 57.82 9.79 57.82 9.35L57.82 3.96L57.33 3.81L56.50 3.96L56.50 7.73C56.50 9.32 55.69 10.12 55.06 10.12ZM61.91 4.33C62.30 4.33 62.62 4.40 62.87 4.49L63.31 5.64C63.70 5.64 64.02 5.32 64.02 4.94C64.02 4.16 63.01 3.81 61.98 3.81C60.45 3.81 59.46 4.54 59.46 5.67C59.46 6.78 60.30 7.25 61.24 7.69C62.02 8.04 63 8.37 63 9.06C63 9.73 62.36 10.12 61.46 10.12C61.17 10.12 60.69 9.98 60.42 9.81L60.09 8.86C59.72 8.86 59.42 9.13 59.42 9.49C59.42 10.29 60.16 10.65 61.57 10.65C63.20 10.65 64.12 9.88 64.12 8.69C64.12 7.46 63.06 6.99 62.06 6.57C61.40 6.29 60.56 5.94 60.56 5.19C60.56 4.72 61.08 4.33 61.91 4.33ZM66.08 0.70L66.08 9.38C66.08 10.36 66.77 10.65 67.28 10.65C67.66 10.65 68.03 10.60 68.22 10.50L68.22 10.00C67.79 10.00 67.40 9.79 67.40 9.35L67.40 0.70C67.40 0.70 67.41 0.04 66.64 0.04C66.18 0.04 65.56 0.14 65.24 0.20L65.24 0.70ZM72.00 10.65C72.69 10.65 73.40 10.28 73.72 9.60C73.92 10.39 74.47 10.65 74.96 10.65C75.22 10.65 75.50 10.61 75.73 10.50L75.73 10.00C75.29 10.00 74.96 9.79 74.96 9.35L74.96 3.96L74.47 3.81L73.64 4.03C73.29 3.85 72.84 3.81 72.42 3.81C70.66 3.81 69.22 4.90 69.22 7.57C69.22 9.83 70.63 10.65 72.00 10.65ZM73.64 7.77C73.64 9.37 72.84 10.00 72.14 10.00C71.37 10.00 70.57 9.45 70.57 7.50C70.57 5.08 71.60 4.33 72.49 4.33C72.91 4.33 73.19 4.40 73.64 4.65ZM76.72 8.15C76.72 9.65 77.62 10.50 79.14 10.50C80.23 10.50 81.07 9.74 81.40 8.75L81.12 10.35L81.12 11.16C81.12 12.74 80.23 13.26 79.25 13.26C78.22 13.26 77.69 12.74 77.69 12.17C77.69 11.82 77.90 11.44 78.32 11.21L78.04 10.79C77.45 11.00 76.78 11.54 76.78 12.25C76.78 13.41 77.92 14 79.25 14C80.92 14 82.43 13.22 82.43 11.10L82.43 3.96L81.94 3.81L81.12 3.96L81.12 7.21C81.12 9.16 80.08 9.98 79.38 9.98C78.81 9.98 78.04 9.69 78.04 8.41L78.04 4.45C78.04 4.45 78.05 3.79 77.28 3.79C76.82 3.79 76.31 3.91 75.99 3.95L75.99 4.45L76.72 4.45Z"></path></g><!----><g data-v-423bf9ae="" id="bf6bfefc-90c5-4893-9980-49c9d508ef9b" transform="matrix(2.852072528086791,0,0,2.852072528086791,131.36183622277542,-0.41116010653409063)" stroke="none" fill="#C66A5D"><path d="M16 23.787L8.102 16 16 8.213 23.898 16 16 23.787zM9.525 16L16 22.383 22.475 16 16 9.617 9.525 16z"></path><path d="M15.915 31.778L-.005 16.084 16.085.222l15.92 15.694-16.09 15.862zM1.419 16.084l14.496 14.29 14.666-14.458-14.496-14.29L1.419 16.084z"></path><path d="M15.5.924h1v30.152h-1z"></path></g><!----></svg>